<svg xmlns="http://www.w3.org/2000/svg" viewBox="0 0 1200 320" width="1200" height="320">
  <defs>
    <linearGradient id="bg" x1="0%" y1="0%" x2="100%" y2="100%">
      <stop offset="0%" stop-color="#07070d"/>
      <stop offset="50%" stop-color="#0b0b16"/>
      <stop offset="100%" stop-color="#07070d"/>
    </linearGradient>
    <linearGradient id="centerLine" x1="0%" y1="0%" x2="100%" y2="0%">
      <stop offset="0%" stop-color="#8b5cf6" stop-opacity="0"/>
      <stop offset="20%" stop-color="#8b5cf6" stop-opacity="0.15"/>
      <stop offset="50%" stop-color="#a78bfa" stop-opacity="0.25"/>
      <stop offset="80%" stop-color="#8b5cf6" stop-opacity="0.15"/>
      <stop offset="100%" stop-color="#8b5cf6" stop-opacity="0"/>
    </linearGradient>
  </defs>

  <!-- background -->
  <rect width="1200" height="320" fill="url(#bg)"/>

  <!-- center frequency line -->
  <line x1="0" y1="160.0" x2="1200" y2="160.0" stroke="url(#centerLine)" stroke-width="0.5"/>

  <!-- glow behind peaks -->
  <circle cx="159.0" cy="160.0" r="66.0" fill="#8b5cf6" opacity="0.06"/><circle cx="1047.0" cy="160.0" r="58.9" fill="#8b5cf6" opacity="0.06"/><circle cx="261.0" cy="160.0" r="51.7" fill="#8b5cf6" opacity="0.06"/><circle cx="297.0" cy="160.0" r="51.7" fill="#8b5cf6" opacity="0.06"/><circle cx="993.0" cy="160.0" r="48.2" fill="#8b5cf6" opacity="0.06"/>

  <!-- waveform -->
  <rect x="61.6" y="157.0" width="2.8" height="6.0" rx="1.4" fill="#6366f1" opacity="0.18"/><rect x="67.6" y="157.0" width="2.8" height="6.0" rx="1.4" fill="#6366f1" opacity="0.18"/><rect x="73.6" y="87.6" width="2.8" height="144.7" rx="1.4" fill="#8f7df7" opacity="0.71"/><rect x="79.6" y="145.1" width="2.8" height="29.8" rx="1.4" fill="#6a6af2" opacity="0.27"/><rect x="85.6" y="143.1" width="2.8" height="33.7" rx="1.4" fill="#6b6af2" opacity="0.29"/><rect x="91.6" y="151.1" width="2.8" height="17.9" rx="1.4" fill="#6668f1" opacity="0.23"/><rect x="97.6" y="145.1" width="2.8" height="29.8" rx="1.4" fill="#6a6af2" opacity="0.27"/><rect x="103.6" y="151.1" width="2.8" height="17.9" rx="1.4" fill="#6668f1" opacity="0.23"/><rect x="109.6" y="157.0" width="2.8" height="6.0" rx="1.4" fill="#6366f1" opacity="0.18"/><rect x="115.6" y="125.3" width="2.8" height="69.4" rx="1.4" fill="#7770f3" opacity="0.42"/><rect x="121.6" y="157.0" width="2.8" height="6.0" rx="1.4" fill="#6366f1" opacity="0.18"/><rect x="127.6" y="139.2" width="2.8" height="41.7" rx="1.4" fill="#6e6cf2" opacity="0.32"/><rect x="133.6" y="157.0" width="2.8" height="6.0" rx="1.4" fill="#6366f1" opacity="0.18"/><rect x="139.6" y="131.2" width="2.8" height="57.5" rx="1.4" fill="#736ef3" opacity="0.38"/><rect x="145.6" y="155.0" width="2.8" height="10.0" rx="1.4" fill="#6466f1" opacity="0.20"/><rect x="151.6" y="157.0" width="2.8" height="6.0" rx="1.4" fill="#6366f1" opacity="0.18"/><rect x="157.6" y="50.0" width="2.8" height="220.0" rx="1.4" fill="#a78bfb" opacity="1.00"/><rect x="163.6" y="157.0" width="2.8" height="6.0" rx="1.4" fill="#6366f1" opacity="0.18"/><rect x="169.6" y="95.6" width="2.8" height="128.9" rx="1.4" fill="#8a7bf6" opacity="0.65"/><rect x="175.6" y="157.0" width="2.8" height="6.0" rx="1.4" fill="#6366f1" opacity="0.18"/><rect x="181.6" y="155.0" width="2.8" height="10.0" rx="1.4" fill="#6466f1" opacity="0.20"/><rect x="187.6" y="149.1" width="2.8" height="21.9" rx="1.4" fill="#6868f1" opacity="0.24"/><rect x="193.6" y="157.0" width="2.8" height="6.0" rx="1.4" fill="#6366f1" opacity="0.18"/><rect x="199.6" y="151.1" width="2.8" height="17.9" rx="1.4" fill="#6668f1" opacity="0.23"/><rect x="205.6" y="157.0" width="2.8" height="6.0" rx="1.4" fill="#6366f1" opacity="0.18"/><rect x="211.6" y="157.0" width="2.8" height="6.0" rx="1.4" fill="#6366f1" opacity="0.18"/><rect x="217.6" y="157.0" width="2.8" height="6.0" rx="1.4" fill="#6366f1" opacity="0.18"/><rect x="223.6" y="151.1" width="2.8" height="17.9" rx="1.4" fill="#6668f1" opacity="0.23"/><rect x="229.6" y="139.2" width="2.8" height="41.7" rx="1.4" fill="#6e6cf2" opacity="0.32"/><rect x="235.6" y="151.1" width="2.8" height="17.9" rx="1.4" fill="#6668f1" opacity="0.23"/><rect x="241.6" y="157.0" width="2.8" height="6.0" rx="1.4" fill="#6366f1" opacity="0.18"/><rect x="247.6" y="157.0" width="2.8" height="6.0" rx="1.4" fill="#6366f1" opacity="0.18"/><rect x="253.6" y="137.2" width="2.8" height="45.6" rx="1.4" fill="#6f6cf2" opacity="0.33"/><rect x="259.6" y="73.8" width="2.8" height="172.4" rx="1.4" fill="#9782f8" opacity="0.82"/><rect x="265.6" y="121.3" width="2.8" height="77.3" rx="1.4" fill="#7972f4" opacity="0.45"/><rect x="271.6" y="157.0" width="2.8" height="6.0" rx="1.4" fill="#6366f1" opacity="0.18"/><rect x="277.6" y="157.0" width="2.8" height="6.0" rx="1.4" fill="#6366f1" opacity="0.18"/><rect x="283.6" y="151.1" width="2.8" height="17.9" rx="1.4" fill="#6668f1" opacity="0.23"/><rect x="289.6" y="143.1" width="2.8" height="33.7" rx="1.4" fill="#6b6af2" opacity="0.29"/><rect x="295.6" y="73.8" width="2.8" height="172.4" rx="1.4" fill="#9782f8" opacity="0.82"/><rect x="301.6" y="157.0" width="2.8" height="6.0" rx="1.4" fill="#6366f1" opacity="0.18"/><rect x="307.6" y="145.1" width="2.8" height="29.8" rx="1.4" fill="#6a6af2" opacity="0.27"/><rect x="313.6" y="151.1" width="2.8" height="17.9" rx="1.4" fill="#6668f1" opacity="0.23"/><rect x="319.6" y="157.0" width="2.8" height="6.0" rx="1.4" fill="#6366f1" opacity="0.18"/><rect x="325.6" y="157.0" width="2.8" height="6.0" rx="1.4" fill="#6366f1" opacity="0.18"/><rect x="331.6" y="117.4" width="2.8" height="85.3" rx="1.4" fill="#7c73f4" opacity="0.48"/><rect x="337.6" y="157.0" width="2.8" height="6.0" rx="1.4" fill="#6366f1" opacity="0.18"/><rect x="343.6" y="153.0" width="2.8" height="13.9" rx="1.4" fill="#6567f1" opacity="0.21"/><rect x="349.6" y="119.4" width="2.8" height="81.3" rx="1.4" fill="#7a73f4" opacity="0.47"/><rect x="355.6" y="149.1" width="2.8" height="21.9" rx="1.4" fill="#6868f1" opacity="0.24"/><rect x="361.6" y="149.1" width="2.8" height="21.9" rx="1.4" fill="#6868f1" opacity="0.24"/><rect x="367.6" y="117.4" width="2.8" height="85.3" rx="1.4" fill="#7c73f4" opacity="0.48"/><rect x="373.6" y="153.0" width="2.8" height="13.9" rx="1.4" fill="#6567f1" opacity="0.21"/><rect x="379.6" y="143.1" width="2.8" height="33.7" rx="1.4" fill="#6b6af2" opacity="0.29"/><rect x="385.6" y="141.1" width="2.8" height="37.7" rx="1.4" fill="#6d6bf2" opacity="0.30"/><rect x="391.6" y="115.4" width="2.8" height="89.2" rx="1.4" fill="#7d74f4" opacity="0.50"/><rect x="397.6" y="155.0" width="2.8" height="10.0" rx="1.4" fill="#6466f1" opacity="0.20"/><rect x="403.6" y="101.5" width="2.8" height="117.0" rx="1.4" fill="#8679f6" opacity="0.61"/><rect x="409.6" y="157.0" width="2.8" height="6.0" rx="1.4" fill="#6366f1" opacity="0.18"/><rect x="415.6" y="143.1" width="2.8" height="33.7" rx="1.4" fill="#6b6af2" opacity="0.29"/><rect x="421.6" y="157.0" width="2.8" height="6.0" rx="1.4" fill="#6366f1" opacity="0.18"/><rect x="427.6" y="157.0" width="2.8" height="6.0" rx="1.4" fill="#6366f1" opacity="0.18"/><rect x="433.6" y="151.1" width="2.8" height="17.9" rx="1.4" fill="#6668f1" opacity="0.23"/><rect x="439.6" y="157.0" width="2.8" height="6.0" rx="1.4" fill="#6366f1" opacity="0.18"/><rect x="445.6" y="153.0" width="2.8" height="13.9" rx="1.4" fill="#6567f1" opacity="0.21"/><rect x="451.6" y="121.3" width="2.8" height="77.3" rx="1.4" fill="#7972f4" opacity="0.45"/><rect x="457.6" y="133.2" width="2.8" height="53.6" rx="1.4" fill="#726ef3" opacity="0.36"/><rect x="463.6" y="143.1" width="2.8" height="33.7" rx="1.4" fill="#6b6af2" opacity="0.29"/><rect x="469.6" y="157.0" width="2.8" height="6.0" rx="1.4" fill="#6366f1" opacity="0.18"/><rect x="475.6" y="157.0" width="2.8" height="6.0" rx="1.4" fill="#6366f1" opacity="0.18"/><rect x="481.6" y="147.1" width="2.8" height="25.8" rx="1.4" fill="#6969f1" opacity="0.26"/><rect x="487.6" y="129.3" width="2.8" height="61.5" rx="1.4" fill="#746ff3" opacity="0.39"/><rect x="493.6" y="105.5" width="2.8" height="109.0" rx="1.4" fill="#8377f5" opacity="0.57"/><rect x="499.6" y="157.0" width="2.8" height="6.0" rx="1.4" fill="#6366f1" opacity="0.18"/><rect x="505.6" y="157.0" width="2.8" height="6.0" rx="1.4" fill="#6366f1" opacity="0.18"/><rect x="511.6" y="157.0" width="2.8" height="6.0" rx="1.4" fill="#6366f1" opacity="0.18"/><rect x="517.6" y="157.0" width="2.8" height="6.0" rx="1.4" fill="#6366f1" opacity="0.18"/><rect x="523.6" y="147.1" width="2.8" height="25.8" rx="1.4" fill="#6969f1" opacity="0.26"/><rect x="529.6" y="139.2" width="2.8" height="41.7" rx="1.4" fill="#6e6cf2" opacity="0.32"/><rect x="535.6" y="157.0" width="2.8" height="6.0" rx="1.4" fill="#6366f1" opacity="0.18"/><rect x="541.6" y="157.0" width="2.8" height="6.0" rx="1.4" fill="#6366f1" opacity="0.18"/><rect x="547.6" y="157.0" width="2.8" height="6.0" rx="1.4" fill="#6366f1" opacity="0.18"/><rect x="553.6" y="157.0" width="2.8" height="6.0" rx="1.4" fill="#6366f1" opacity="0.18"/><rect x="559.6" y="157.0" width="2.8" height="6.0" rx="1.4" fill="#6366f1" opacity="0.18"/><rect x="565.6" y="157.0" width="2.8" height="6.0" rx="1.4" fill="#6366f1" opacity="0.18"/><rect x="571.6" y="153.0" width="2.8" height="13.9" rx="1.4" fill="#6567f1" opacity="0.21"/><rect x="577.6" y="153.0" width="2.8" height="13.9" rx="1.4" fill="#6567f1" opacity="0.21"/><rect x="583.6" y="129.3" width="2.8" height="61.5" rx="1.4" fill="#746ff3" opacity="0.39"/><rect x="589.6" y="157.0" width="2.8" height="6.0" rx="1.4" fill="#6366f1" opacity="0.18"/><rect x="595.6" y="141.1" width="2.8" height="37.7" rx="1.4" fill="#6d6bf2" opacity="0.30"/><rect x="601.6" y="135.2" width="2.8" height="49.6" rx="1.4" fill="#706df3" opacity="0.35"/><rect x="607.6" y="121.3" width="2.8" height="77.3" rx="1.4" fill="#7972f4" opacity="0.45"/><rect x="613.6" y="119.4" width="2.8" height="81.3" rx="1.4" fill="#7a73f4" opacity="0.47"/><rect x="619.6" y="119.4" width="2.8" height="81.3" rx="1.4" fill="#7a73f4" opacity="0.47"/><rect x="625.6" y="117.4" width="2.8" height="85.3" rx="1.4" fill="#7c73f4" opacity="0.48"/><rect x="631.6" y="157.0" width="2.8" height="6.0" rx="1.4" fill="#6366f1" opacity="0.18"/><rect x="637.6" y="157.0" width="2.8" height="6.0" rx="1.4" fill="#6366f1" opacity="0.18"/><rect x="643.6" y="117.4" width="2.8" height="85.3" rx="1.4" fill="#7c73f4" opacity="0.48"/><rect x="649.6" y="147.1" width="2.8" height="25.8" rx="1.4" fill="#6969f1" opacity="0.26"/><rect x="655.6" y="149.1" width="2.8" height="21.9" rx="1.4" fill="#6868f1" opacity="0.24"/><rect x="661.6" y="151.1" width="2.8" height="17.9" rx="1.4" fill="#6668f1" opacity="0.23"/><rect x="667.6" y="141.1" width="2.8" height="37.7" rx="1.4" fill="#6d6bf2" opacity="0.30"/><rect x="673.6" y="155.0" width="2.8" height="10.0" rx="1.4" fill="#6466f1" opacity="0.20"/><rect x="679.6" y="157.0" width="2.8" height="6.0" rx="1.4" fill="#6366f1" opacity="0.18"/><rect x="685.6" y="155.0" width="2.8" height="10.0" rx="1.4" fill="#6466f1" opacity="0.20"/><rect x="691.6" y="149.1" width="2.8" height="21.9" rx="1.4" fill="#6868f1" opacity="0.24"/><rect x="697.6" y="149.1" width="2.8" height="21.9" rx="1.4" fill="#6868f1" opacity="0.24"/><rect x="703.6" y="115.4" width="2.8" height="89.2" rx="1.4" fill="#7d74f4" opacity="0.50"/><rect x="709.6" y="153.0" width="2.8" height="13.9" rx="1.4" fill="#6567f1" opacity="0.21"/><rect x="715.6" y="155.0" width="2.8" height="10.0" rx="1.4" fill="#6466f1" opacity="0.20"/><rect x="721.6" y="157.0" width="2.8" height="6.0" rx="1.4" fill="#6366f1" opacity="0.18"/><rect x="727.6" y="135.2" width="2.8" height="49.6" rx="1.4" fill="#706df3" opacity="0.35"/><rect x="733.6" y="133.2" width="2.8" height="53.6" rx="1.4" fill="#726ef3" opacity="0.36"/><rect x="739.6" y="147.1" width="2.8" height="25.8" rx="1.4" fill="#6969f1" opacity="0.26"/><rect x="745.6" y="115.4" width="2.8" height="89.2" rx="1.4" fill="#7d74f4" opacity="0.50"/><rect x="751.6" y="135.2" width="2.8" height="49.6" rx="1.4" fill="#706df3" opacity="0.35"/><rect x="757.6" y="157.0" width="2.8" height="6.0" rx="1.4" fill="#6366f1" opacity="0.18"/><rect x="763.6" y="149.1" width="2.8" height="21.9" rx="1.4" fill="#6868f1" opacity="0.24"/><rect x="769.6" y="123.3" width="2.8" height="73.4" rx="1.4" fill="#7871f4" opacity="0.44"/><rect x="775.6" y="105.5" width="2.8" height="109.0" rx="1.4" fill="#8377f5" opacity="0.57"/><rect x="781.6" y="113.4" width="2.8" height="93.2" rx="1.4" fill="#7e75f5" opacity="0.51"/><rect x="787.6" y="125.3" width="2.8" height="69.4" rx="1.4" fill="#7770f3" opacity="0.42"/><rect x="793.6" y="155.0" width="2.8" height="10.0" rx="1.4" fill="#6466f1" opacity="0.20"/><rect x="799.6" y="155.0" width="2.8" height="10.0" rx="1.4" fill="#6466f1" opacity="0.20"/><rect x="805.6" y="157.0" width="2.8" height="6.0" rx="1.4" fill="#6366f1" opacity="0.18"/><rect x="811.6" y="139.2" width="2.8" height="41.7" rx="1.4" fill="#6e6cf2" opacity="0.32"/><rect x="817.6" y="125.3" width="2.8" height="69.4" rx="1.4" fill="#7770f3" opacity="0.42"/><rect x="823.6" y="141.1" width="2.8" height="37.7" rx="1.4" fill="#6d6bf2" opacity="0.30"/><rect x="829.6" y="135.2" width="2.8" height="49.6" rx="1.4" fill="#706df3" opacity="0.35"/><rect x="835.6" y="141.1" width="2.8" height="37.7" rx="1.4" fill="#6d6bf2" opacity="0.30"/><rect x="841.6" y="157.0" width="2.8" height="6.0" rx="1.4" fill="#6366f1" opacity="0.18"/><rect x="847.6" y="157.0" width="2.8" height="6.0" rx="1.4" fill="#6366f1" opacity="0.18"/><rect x="853.6" y="157.0" width="2.8" height="6.0" rx="1.4" fill="#6366f1" opacity="0.18"/><rect x="859.6" y="135.2" width="2.8" height="49.6" rx="1.4" fill="#706df3" opacity="0.35"/><rect x="865.6" y="143.1" width="2.8" height="33.7" rx="1.4" fill="#6b6af2" opacity="0.29"/><rect x="871.6" y="157.0" width="2.8" height="6.0" rx="1.4" fill="#6366f1" opacity="0.18"/><rect x="877.6" y="135.2" width="2.8" height="49.6" rx="1.4" fill="#706df3" opacity="0.35"/><rect x="883.6" y="157.0" width="2.8" height="6.0" rx="1.4" fill="#6366f1" opacity="0.18"/><rect x="889.6" y="143.1" width="2.8" height="33.7" rx="1.4" fill="#6b6af2" opacity="0.29"/><rect x="895.6" y="125.3" width="2.8" height="69.4" rx="1.4" fill="#7770f3" opacity="0.42"/><rect x="901.6" y="155.0" width="2.8" height="10.0" rx="1.4" fill="#6466f1" opacity="0.20"/><rect x="907.6" y="153.0" width="2.8" height="13.9" rx="1.4" fill="#6567f1" opacity="0.21"/><rect x="913.6" y="149.1" width="2.8" height="21.9" rx="1.4" fill="#6868f1" opacity="0.24"/><rect x="919.6" y="135.2" width="2.8" height="49.6" rx="1.4" fill="#706df3" opacity="0.35"/><rect x="925.6" y="153.0" width="2.8" height="13.9" rx="1.4" fill="#6567f1" opacity="0.21"/><rect x="931.6" y="149.1" width="2.8" height="21.9" rx="1.4" fill="#6868f1" opacity="0.24"/><rect x="937.6" y="141.1" width="2.8" height="37.7" rx="1.4" fill="#6d6bf2" opacity="0.30"/><rect x="943.6" y="133.2" width="2.8" height="53.6" rx="1.4" fill="#726ef3" opacity="0.36"/><rect x="949.6" y="135.2" width="2.8" height="49.6" rx="1.4" fill="#706df3" opacity="0.35"/><rect x="955.6" y="141.1" width="2.8" height="37.7" rx="1.4" fill="#6d6bf2" opacity="0.30"/><rect x="961.6" y="137.2" width="2.8" height="45.6" rx="1.4" fill="#6f6cf2" opacity="0.33"/><rect x="967.6" y="141.1" width="2.8" height="37.7" rx="1.4" fill="#6d6bf2" opacity="0.30"/><rect x="973.6" y="155.0" width="2.8" height="10.0" rx="1.4" fill="#6466f1" opacity="0.20"/><rect x="979.6" y="127.3" width="2.8" height="65.4" rx="1.4" fill="#7570f3" opacity="0.41"/><rect x="985.6" y="83.7" width="2.8" height="152.6" rx="1.4" fill="#917ff7" opacity="0.74"/><rect x="991.6" y="79.7" width="2.8" height="160.6" rx="1.4" fill="#9480f8" opacity="0.77"/><rect x="997.6" y="127.3" width="2.8" height="65.4" rx="1.4" fill="#7570f3" opacity="0.41"/><rect x="1003.6" y="127.3" width="2.8" height="65.4" rx="1.4" fill="#7570f3" opacity="0.41"/><rect x="1009.6" y="147.1" width="2.8" height="25.8" rx="1.4" fill="#6969f1" opacity="0.26"/><rect x="1015.6" y="155.0" width="2.8" height="10.0" rx="1.4" fill="#6466f1" opacity="0.20"/><rect x="1021.6" y="119.4" width="2.8" height="81.3" rx="1.4" fill="#7a73f4" opacity="0.47"/><rect x="1027.6" y="131.2" width="2.8" height="57.5" rx="1.4" fill="#736ef3" opacity="0.38"/><rect x="1033.6" y="135.2" width="2.8" height="49.6" rx="1.4" fill="#706df3" opacity="0.35"/><rect x="1039.6" y="151.1" width="2.8" height="17.9" rx="1.4" fill="#6668f1" opacity="0.23"/><rect x="1045.6" y="61.9" width="2.8" height="196.2" rx="1.4" fill="#9f86f9" opacity="0.91"/><rect x="1051.6" y="155.0" width="2.8" height="10.0" rx="1.4" fill="#6466f1" opacity="0.20"/><rect x="1057.6" y="149.1" width="2.8" height="21.9" rx="1.4" fill="#6868f1" opacity="0.24"/><rect x="1063.6" y="135.2" width="2.8" height="49.6" rx="1.4" fill="#706df3" opacity="0.35"/><rect x="1069.6" y="109.4" width="2.8" height="101.1" rx="1.4" fill="#8176f5" opacity="0.54"/><rect x="1075.6" y="133.2" width="2.8" height="53.6" rx="1.4" fill="#726ef3" opacity="0.36"/><rect x="1081.6" y="97.6" width="2.8" height="124.9" rx="1.4" fill="#887af6" opacity="0.64"/><rect x="1087.6" y="111.4" width="2.8" height="97.1" rx="1.4" fill="#7f75f5" opacity="0.53"/><rect x="1093.6" y="145.1" width="2.8" height="29.8" rx="1.4" fill="#6a6af2" opacity="0.27"/><rect x="1099.6" y="137.2" width="2.8" height="45.6" rx="1.4" fill="#6f6cf2" opacity="0.33"/><rect x="1105.6" y="89.6" width="2.8" height="140.7" rx="1.4" fill="#8d7df7" opacity="0.70"/><rect x="1111.6" y="119.4" width="2.8" height="81.3" rx="1.4" fill="#7a73f4" opacity="0.47"/><rect x="1117.6" y="107.5" width="2.8" height="105.1" rx="1.4" fill="#8277f5" opacity="0.56"/><rect x="1123.6" y="157.0" width="2.8" height="6.0" rx="1.4" fill="#6366f1" opacity="0.18"/><rect x="1129.6" y="137.2" width="2.8" height="45.6" rx="1.4" fill="#6f6cf2" opacity="0.33"/><rect x="1135.6" y="147.1" width="2.8" height="25.8" rx="1.4" fill="#6969f1" opacity="0.26"/>

  <!-- label: left -->
  <text x="24" y="158.0" font-family="'SF Mono','JetBrains Mono','Fira Code',monospace" font-size="9" fill="#4b4b6b" letter-spacing="2" dominant-baseline="middle">
    SIGNAL
  </text>

  <!-- label: right -->
  <text x="1176" y="158.0" font-family="'SF Mono','JetBrains Mono','Fira Code',monospace" font-size="9" fill="#4b4b6b" letter-spacing="2" text-anchor="end" dominant-baseline="middle">
    180D
  </text>
</svg>